<svg xmlns="http://www.w3.org/2000/svg" width="25.467" height="24" viewBox="0 0 25.467 24"><defs><style>.a{fill:#fde74c;}.b{fill:#5bc0eb;}.c,.e{fill:none;}.c{stroke:#9bc53d;stroke-width:2px;}.d{stroke:none;}</style></defs><g transform="translate(-284.53 -134)"><g transform="translate(284.53 119.255)"><g transform="translate(0 14.745)"><path class="a" d="M1.951,36.883,6.124,22.109c6.373.013,6.879.013,13.108,0l4.281,14.774Z" transform="translate(0 -14.745)"/></g><g transform="translate(7.487 25.744)"><path d="M155.714,242.752l-2.316-3.526,1.9-2.379a.41.41,0,0,0,.085-.266.861.861,0,0,0-.8-.712.439.439,0,0,0-.382.2l-2.294,3.123v-2.9c0-.3-.351-.425-.69-.425s-.69.127-.69.425v6.9c0,.287.34.436.69.436s.69-.149.69-.436v-2.082l.574-.722,2,3.027a.539.539,0,0,0,.478.266.841.841,0,0,0,.829-.69A.413.413,0,0,0,155.714,242.752Z" transform="translate(-150.531 -235.869)"/></g><g transform="translate(13.117 25.744)"><path d="M268.256,239.557H266.45c-.276,0-.425.276-.425.542s.149.542.425.542h.86v.627c0,.828-.425,1.222-1.115,1.222s-1.1-.393-1.1-1.222V238.3c0-.829.4-1.222,1.115-1.222a.976.976,0,0,1,1.1,1.052c.011.329.319.435.69.435.457,0,.69-.127.69-.659,0-1.275-1.073-2.039-2.539-2.039a2.2,2.2,0,0,0-2.443,2.432v2.963a2.491,2.491,0,0,0,4.982,0V240A.426.426,0,0,0,268.256,239.557Z" transform="translate(-263.71 -235.871)"/></g></g><g transform="translate(284.53 119.255)"><g transform="translate(0 14.745)"><path class="b" d="M21.07,21.765A1.678,1.678,0,0,0,19.4,20.247H15.965a3.691,3.691,0,1,0-6.43,0H5.954a1.678,1.678,0,0,0-1.669,1.522L0,36.94v.129a1.678,1.678,0,0,0,1.676,1.676H23.791a1.678,1.678,0,0,0,1.676-1.676v-.132ZM12.75,16.607a1.829,1.829,0,0,1,.262,3.64h-.525a1.829,1.829,0,0,1,.262-3.64ZM1.951,36.883,6.124,22.109h6.249a3.727,3.727,0,0,0,.754,0h6.1l4.281,14.774Z" transform="translate(0 -14.745)"/></g><g transform="translate(7.487 25.744)"><path d="M155.714,242.752l-2.316-3.526,1.9-2.379a.41.41,0,0,0,.085-.266.861.861,0,0,0-.8-.712.439.439,0,0,0-.382.2l-2.294,3.123v-2.9c0-.3-.351-.425-.69-.425s-.69.127-.69.425v6.9c0,.287.34.436.69.436s.69-.149.69-.436v-2.082l.574-.722,2,3.027a.539.539,0,0,0,.478.266.841.841,0,0,0,.829-.69A.413.413,0,0,0,155.714,242.752Z" transform="translate(-150.531 -235.869)"/></g><g transform="translate(13.117 25.744)"><path d="M268.256,239.557H266.45c-.276,0-.425.276-.425.542s.149.542.425.542h.86v.627c0,.828-.425,1.222-1.115,1.222s-1.1-.393-1.1-1.222V238.3c0-.829.4-1.222,1.115-1.222a.976.976,0,0,1,1.1,1.052c.011.329.319.435.69.435.457,0,.69-.127.69-.659,0-1.275-1.073-2.039-2.539-2.039a2.2,2.2,0,0,0-2.443,2.432v2.963a2.491,2.491,0,0,0,4.982,0V240A.426.426,0,0,0,268.256,239.557Z" transform="translate(-263.71 -235.871)"/></g></g><g class="c" transform="translate(293.56 134)"><circle class="d" cx="3.7" cy="3.7" r="3.7"/><circle class="e" cx="3.7" cy="3.7" r="2.7"/></g></g></svg>