<svg xmlns="http://www.w3.org/2000/svg" width="30" height="30" viewBox="0 0 30 30"><g transform="translate(0 0)"><g transform="translate(0 0)"><g transform="translate(0 0)"><path d="M194.687,63.979a2.729,2.729,0,1,0,2.729,2.729A2.731,2.731,0,0,0,194.687,63.979Zm0,4.094a1.365,1.365,0,1,1,1.365-1.365A1.367,1.367,0,0,1,194.687,68.073Z" transform="translate(-179.688 -59.889)"/><path d="M29.318,12.273a.68.68,0,0,0,.682-.68V8.866a.681.681,0,0,0-.334-.586L16.329.359,16.311.349A2.644,2.644,0,0,0,13.67.358L.334,8.28A.681.681,0,0,0,0,8.866v2.727a.68.68,0,0,0,.682.68H2.727V24.546A2.73,2.73,0,0,0,0,27.273v2.045A.681.681,0,0,0,.682,30H29.318A.681.681,0,0,0,30,29.318V27.273a2.73,2.73,0,0,0-2.727-2.727V12.273Zm-.682,15v1.364H1.364V27.273a1.365,1.365,0,0,1,1.364-1.364H27.273A1.365,1.365,0,0,1,28.636,27.273ZM4.091,24.545V12.273H6.818V24.545Zm4.091,0V12.273h4.091V24.545Zm5.454,0V12.273h2.727V24.545Zm4.091,0V12.273h4.091V24.545Zm5.455,0V12.273h2.727V24.545ZM1.364,10.909V9.252L14.347,1.539a1.3,1.3,0,0,1,1.3,0L28.636,9.252v1.657Z" transform="translate(0 0)"/></g></g></g></svg>