<svg xmlns="http://www.w3.org/2000/svg" width="19" height="21.585" viewBox="0 0 19 21.585"><defs><style>.a{fill:#9bc53d;}.b{fill:#fde74c;}.c{fill:#5bc0eb;}</style></defs><g transform="translate(-40 -384)"><g transform="translate(-635 -76)"><path class="a" d="M14.354,0H2.209A2.571,2.571,0,0,0-.36,2.57V3.68H-1.568a.514.514,0,0,0-.514.514.514.514,0,0,0,.514.514h1.2v5.586h-1.2a.514.514,0,0,0-.514.514.514.514,0,0,0,.514.514h1.2v5.556h-1.2a.514.514,0,0,0-.514.514.514.514,0,0,0,.514.514h1.2v1.11a2.571,2.571,0,0,0,2.57,2.57H14.348a2.571,2.571,0,0,0,2.57-2.57V2.57A2.566,2.566,0,0,0,14.354,0ZM15.9,19.016a1.546,1.546,0,0,1-1.542,1.542H2.209A1.546,1.546,0,0,1,.668,19.016v-1.11h1.2a.514.514,0,0,0,0-1.028H.668V11.322h1.2a.514.514,0,1,0,0-1.028H.668V4.708h1.2a.514.514,0,1,0,0-1.028H.668V2.57A1.546,1.546,0,0,1,2.209,1.028H14.354A1.546,1.546,0,0,1,15.9,2.57Zm0,0" transform="translate(677.082 460)"/><g transform="translate(681.117 465.562)"><g transform="translate(0 0)"><path class="b" d="M150.335,85.214,148.8,83.675a1.216,1.216,0,0,0-1.72,0l-.5.5a.194.194,0,0,1-.275,0l-1.5-1.5a.194.194,0,0,1,0-.275l.5-.5a1.218,1.218,0,0,0,0-1.72l-1.538-1.538a1.216,1.216,0,0,0-1.817.109h0l-.33.421a3.921,3.921,0,0,0,.311,5.189l2.69,2.69a3.92,3.92,0,0,0,5.189.311l.421-.33a1.216,1.216,0,0,0,.109-1.817Zm-.467.884a.389.389,0,0,1-.15.286l-.421.33a3.1,3.1,0,0,1-4.1-.246l-2.69-2.69a3.1,3.1,0,0,1-.246-4.1l.33-.421a.394.394,0,0,1,.589-.035l1.538,1.538a.4.4,0,0,1,0,.557l-.5.5a1.018,1.018,0,0,0,0,1.438l1.5,1.5a1.017,1.017,0,0,0,1.438,0l.5-.5a.394.394,0,0,1,.557,0l1.539,1.539A.389.389,0,0,1,149.868,86.1Z" transform="translate(-140.779 -78.284)"/></g></g></g><path class="c" d="M.668,3.68H-1.568a.514.514,0,0,0-.514.514.514.514,0,0,0,.514.514h1.2v5.586h-1.2a.514.514,0,0,0-.514.514.514.514,0,0,0,.514.514h1.2v5.556h-1.2a.514.514,0,0,0-.514.514.514.514,0,0,0,.514.514H.668C.668,20.435.668,1.151.668,3.68Zm0,14.226h1.2a.514.514,0,0,0,0-1.028H.668V11.322h1.2a.514.514,0,1,0,0-1.028H.668V4.708h1.2a.514.514,0,1,0,0-1.028H.668C.67,1.719.67,19.866.668,17.905Z" transform="translate(42.082 384)"/></g></svg>