<svg xmlns="http://www.w3.org/2000/svg" width="22.547" height="25" viewBox="0 0 22.547 25"><defs><style>.a{fill:#9bc53d;}.b{fill:#fde74c;}.c{fill:#fff;}.d{fill:#5bc0eb;}</style></defs><g transform="translate(-41 -282)"><g transform="translate(41 282)"><path class="a" d="M92.517,10.97A5.308,5.308,0,0,0,96.4,9.363,5.308,5.308,0,0,0,98,5.485,5.308,5.308,0,0,0,96.4,1.607a5.484,5.484,0,0,0-7.756,0,5.308,5.308,0,0,0-1.607,3.878,5.308,5.308,0,0,0,1.607,3.878A5.309,5.309,0,0,0,92.517,10.97Zm-2.934-8.42a4.149,4.149,0,0,1,5.869,0,3.966,3.966,0,0,1,1.216,2.934A3.965,3.965,0,0,1,95.452,8.42a4.149,4.149,0,0,1-5.869,0,3.965,3.965,0,0,1-1.216-2.935,3.965,3.965,0,0,1,1.216-2.934Zm0,0" transform="translate(-83.161 0)"/><path class="b" d="M18.954,253.827a13.545,13.545,0,0,0-.185-1.439,11.336,11.336,0,0,0-.354-1.447,7.147,7.147,0,0,0-.595-1.349,5.087,5.087,0,0,0-.9-1.169,3.955,3.955,0,0,0-1.288-.809,4.452,4.452,0,0,0-1.645-.3,1.669,1.669,0,0,0-.892.378c-.267.174-.58.376-.929.6a5.32,5.32,0,0,1-1.2.529,4.666,4.666,0,0,1-2.939,0,5.3,5.3,0,0,1-1.2-.529c-.346-.221-.658-.422-.93-.6a1.668,1.668,0,0,0-.891-.378,4.447,4.447,0,0,0-1.645.3,3.95,3.95,0,0,0-1.289.81,5.086,5.086,0,0,0-.9,1.169,7.159,7.159,0,0,0-.595,1.349,11.362,11.362,0,0,0-.354,1.447,13.456,13.456,0,0,0-.185,1.439c-.03.435-.046.887-.046,1.345a3.782,3.782,0,0,0,1.123,2.861,4.043,4.043,0,0,0,2.894,1.056H14.983a4.043,4.043,0,0,0,2.894-1.056A3.78,3.78,0,0,0,19,255.173c0-.459-.016-.911-.046-1.345Zm-2,3.239a2.722,2.722,0,0,1-1.974.688H4.017a2.722,2.722,0,0,1-1.974-.688,2.469,2.469,0,0,1-.709-1.894c0-.427.014-.848.042-1.253a12.135,12.135,0,0,1,.167-1.3,10.023,10.023,0,0,1,.311-1.276,5.829,5.829,0,0,1,.484-1.1A3.771,3.771,0,0,1,3,249.388a2.624,2.624,0,0,1,.857-.533,3.073,3.073,0,0,1,1.051-.2c.047.025.13.072.265.16.274.179.591.383.94.606a6.612,6.612,0,0,0,1.508.674,6,6,0,0,0,3.76,0,6.619,6.619,0,0,0,1.509-.674c.358-.229.665-.427.939-.606.135-.088.218-.135.265-.16a3.075,3.075,0,0,1,1.051.2,2.627,2.627,0,0,1,.857.533,3.761,3.761,0,0,1,.659.864,5.809,5.809,0,0,1,.484,1.1,10,10,0,0,1,.311,1.275,12.242,12.242,0,0,1,.167,1.3h0c.028.4.043.824.043,1.252a2.469,2.469,0,0,1-.709,1.894Zm0,0" transform="translate(0 -236.316)"/></g><g transform="translate(-3 15)"><g transform="translate(62.183 420.853)"><g transform="translate(-5.634 -138.853)"><g transform="translate(0 0)"><path d="M244.222,272.084a.2.2,0,0,0-.289,0l-.374.374a.068.068,0,0,0-.017.028l-.082.268a.068.068,0,0,0,.065.088l.018,0,.275-.076a.068.068,0,0,0,.03-.017l.374-.373A.2.2,0,0,0,244.222,272.084Zm-.457.553-.138.038.041-.133.253-.252.1.1Zm.361-.36-.013.013-.1-.1.013-.013a.068.068,0,0,1,.1.1Z" transform="translate(-241.839 -266.638)"/><path class="c" d="M117.341.71a1.534,1.534,0,0,0-2.169,0L109.09,6.791a.341.341,0,0,0-.087.15l-.8,2.887a.341.341,0,0,0,.419.42l2.887-.8a.341.341,0,0,0,.15-.087l6.081-6.082a1.536,1.536,0,0,0,0-2.169Z" transform="translate(-108.19 -0.261)"/></g></g></g><g transform="translate(62.183 420.853)"><g transform="translate(-5.634 -138.853)"><g transform="translate(0 0)"><path class="d" d="M244.222,272.084a.2.2,0,0,0-.289,0l-.374.374a.068.068,0,0,0-.017.028l-.082.268a.068.068,0,0,0,.065.088l.018,0,.275-.076a.068.068,0,0,0,.03-.017l.374-.373A.2.2,0,0,0,244.222,272.084Zm-.457.553-.138.038.041-.133.253-.252.1.1Zm.361-.36-.013.013-.1-.1.013-.013a.068.068,0,0,1,.1.1Z" transform="translate(-241.839 -266.638)"/><path class="d" d="M117.341.71a1.534,1.534,0,0,0-2.169,0L109.09,6.791a.341.341,0,0,0-.087.15l-.8,2.887a.341.341,0,0,0,.419.42l2.887-.8a.341.341,0,0,0,.15-.087l6.081-6.082a1.536,1.536,0,0,0,0-2.169Zm-7.508,6.3,4.977-4.977,1.605,1.605-4.977,4.977Zm-.321.643,1.282,1.283-1.774.491ZM117.259,2.8l-.361.362-1.605-1.605.362-.362a.852.852,0,0,1,1.205,0l.4.4A.853.853,0,0,1,117.259,2.8Zm0,0" transform="translate(-108.19 -0.261)"/></g></g></g></g></g></svg>