<svg xmlns="http://www.w3.org/2000/svg" width="42.667" height="30" viewBox="0 0 42.667 30"><g transform="translate(-810 -110)"><path d="M40.167,26.667a2.5,2.5,0,0,0,2.5-2.5V17.5a.908.908,0,0,0-.066-.325L39.693,9.9a2.488,2.488,0,0,0-2.321-1.571H29.333V4.167a2.5,2.5,0,0,0-2.5-2.5H25.5V.833a.833.833,0,0,0-1.667,0v.833H20.5V.833a.833.833,0,1,0-1.667,0v.833H15.5V.833a.833.833,0,0,0-1.667,0v.833H10.5V.833a.833.833,0,0,0-1.667,0v.833h-1.8a2.5,2.5,0,0,0-2.372,1.71L.043,17.237A.831.831,0,0,0,0,17.5v6.667a2.5,2.5,0,0,0,2.5,2.5H3.917A4.1,4.1,0,0,0,8,30a4.567,4.567,0,0,0,3.333-1.667A4.651,4.651,0,0,0,14.667,30a4.116,4.116,0,0,0,4.083-3.333H31.084A4.27,4.27,0,0,0,35.167,30a4.219,4.219,0,0,0,4.083-3.333ZM8,28.333a2.5,2.5,0,1,1,2.5-2.5A2.5,2.5,0,0,1,8,28.333Zm6.667,0a2.5,2.5,0,1,1,2.5-2.5A2.5,2.5,0,0,1,14.667,28.333Zm13-3.333H18.749a4.165,4.165,0,0,0-7.416-1.664A4.165,4.165,0,0,0,3.917,25H2.5a.834.834,0,0,1-.833-.833V17.635L6.244,3.9a.832.832,0,0,1,.791-.57h19.8a.834.834,0,0,1,.833.833Zm11.6-11.667L40.6,16.667H34.333V13.333Zm-4.1,15a2.5,2.5,0,1,1,2.5-2.5A2.5,2.5,0,0,1,35.167,28.333Zm0-6.667A4.173,4.173,0,0,0,31.084,25H29.333V10h8.038a.83.83,0,0,1,.774.524l.457,1.143H33.5a.833.833,0,0,0-.833.833v5a.833.833,0,0,0,.833.833H41V20H39.333a.833.833,0,0,0,0,1.667H41v2.5a.834.834,0,0,1-.833.833h-.917a4.173,4.173,0,0,0-4.083-3.333Zm0,0" transform="translate(810 110)"/><path d="M104.534,136.747h.613a.833.833,0,0,0,0-1.667h-.613a.833.833,0,0,1-.706-1.275l1.647-2.636.114.425a.833.833,0,1,0,1.61-.431l-.61-2.277c0-.007,0-.015-.007-.023a.834.834,0,0,0-1.013-.567l-2.277.61a.833.833,0,1,0,.431,1.61l.233-.062-1.542,2.467A2.5,2.5,0,0,0,104.534,136.747Zm0,0" transform="translate(716.473 -7.58)"/><path d="M192.873,176.311a.833.833,0,0,1-.706,1.275h-3.315l.244-.244a.833.833,0,0,0-1.178-1.179l-1.667,1.667-.008.009a.833.833,0,0,0,0,1.161l.008.009,1.667,1.667A.833.833,0,1,0,189.1,179.5l-.244-.244h3.315a2.5,2.5,0,0,0,2.12-3.826l-.248-.4a.833.833,0,0,0-1.413.884Zm0,0" transform="translate(639.494 -50.086)"/><path d="M166.461,70.459a.833.833,0,0,0,1.148-.265l.247-.4a.833.833,0,0,1,1.413,0l1.542,2.466-.233-.062a.833.833,0,0,0-.431,1.61l2.277.61h.006a.834.834,0,0,0,1.015-.591l.61-2.277a.833.833,0,0,0-1.61-.431l-.114.426-1.648-2.636a2.5,2.5,0,0,0-4.24,0l-.247.4a.834.834,0,0,0,.265,1.148Zm0,0" transform="translate(657.77 47.905)"/></g></svg>