<svg xmlns="http://www.w3.org/2000/svg" width="19" height="19" viewBox="0 0 19 19"><defs><style>.a{fill:#9bc53d;}.b{fill:#5bc0eb;}.c{fill:#fde74c;}</style></defs><g transform="translate(-330 -45)"><path class="a" d="M9.5,19A9.5,9.5,0,1,1,19,9.5,9.511,9.511,0,0,1,9.5,19Zm0-17.812A8.313,8.313,0,1,0,17.813,9.5,8.322,8.322,0,0,0,9.5,1.188Zm0,0" transform="translate(330 45)"/><path class="b" d="M236.043,363.356a.688.688,0,1,1-.688-.688A.688.688,0,0,1,236.043,363.356Zm0,0" transform="translate(104.144 -304.049)"/><path class="c" d="M168.254,92.724a.516.516,0,0,1-.516-.516v-.694a1.55,1.55,0,0,1,1.033-1.459,2.133,2.133,0,0,0,1.374-1.8,1.891,1.891,0,1,0-3.782,0,.516.516,0,1,1-1.031,0,2.922,2.922,0,1,1,5.845,0,3.164,3.164,0,0,1-2.062,2.773.516.516,0,0,0-.344.487v.694A.516.516,0,0,1,168.254,92.724Zm0,0" transform="translate(171.246 -35.846)"/></g></svg>