<svg xmlns="http://www.w3.org/2000/svg" width="21.689" height="21.691" viewBox="0 0 21.689 21.691"><defs><style>.a{fill:#aaa;}</style></defs><path class="a" d="M21.606,9.434l0,0L12.756.584a2,2,0,0,0-2.824,0L1.089,9.428l-.009.009a2,2,0,0,0,1.329,3.4l.062,0h.352v6.511A2.34,2.34,0,0,0,5.16,21.69H8.622a.636.636,0,0,0,.635-.635v-5.1a1.068,1.068,0,0,1,1.066-1.066h2.042a1.067,1.067,0,0,1,1.066,1.066v5.1a.636.636,0,0,0,.635.635h3.462a2.34,2.34,0,0,0,2.337-2.337V12.842h.327a2,2,0,0,0,1.413-3.408Zm-.9,1.924a.721.721,0,0,1-.513.213H19.23a.635.635,0,0,0-.635.635v7.147a1.067,1.067,0,0,1-1.066,1.066H14.7V15.95a2.34,2.34,0,0,0-2.337-2.337H10.323A2.34,2.34,0,0,0,7.986,15.95v4.47H5.16a1.067,1.067,0,0,1-1.066-1.066V12.206a.635.635,0,0,0-.635-.635H2.482a.725.725,0,0,1-.5-1.238h0l8.848-8.848a.726.726,0,0,1,1.026,0L20.7,10.329l0,0a.727.727,0,0,1,0,1.026Zm0,0" transform="translate(-0.5 0.001)"/></svg>