<svg xmlns="http://www.w3.org/2000/svg" width="26" height="25" viewBox="0 0 26 25"><defs><style>.a{fill:#9bc53d;}</style></defs><g transform="translate(-33 -955)"><path class="a" d="M23.855,10.438l0,0L14.062.647a2.21,2.21,0,0,0-3.125,0L1.151,10.431l-.01.01a2.208,2.208,0,0,0,1.47,3.764c.023,0,.045,0,.068,0h.39v7.2A2.589,2.589,0,0,0,5.656,24H9.487a.7.7,0,0,0,.7-.7V17.648a1.181,1.181,0,0,1,1.18-1.18H13.63a1.181,1.181,0,0,1,1.18,1.18V23.3a.7.7,0,0,0,.7.7h3.831a2.589,2.589,0,0,0,2.586-2.586v-7.2h.362a2.21,2.21,0,0,0,1.564-3.771Z" transform="translate(34.5 955.001)"/><path d="M23.855,10.438l0,0L14.062.647a2.21,2.21,0,0,0-3.125,0L1.151,10.431l-.01.01a2.208,2.208,0,0,0,1.47,3.764c.023,0,.045,0,.068,0h.39v7.2A2.589,2.589,0,0,0,5.656,24H9.487a.7.7,0,0,0,.7-.7V17.648a1.181,1.181,0,0,1,1.18-1.18H13.63a1.181,1.181,0,0,1,1.18,1.18V23.3a.7.7,0,0,0,.7.7h3.831a2.589,2.589,0,0,0,2.586-2.586v-7.2h.362a2.21,2.21,0,0,0,1.564-3.771Zm-1,2.129a.8.8,0,0,1-.568.235H21.226a.7.7,0,0,0-.7.7v7.908a1.181,1.181,0,0,1-1.18,1.18H16.216V17.648a2.589,2.589,0,0,0-2.586-2.586H11.37a2.589,2.589,0,0,0-2.586,2.586v4.945H5.656a1.181,1.181,0,0,1-1.18-1.18V13.506a.7.7,0,0,0-.7-.7H2.694a.8.8,0,0,1-.553-1.37h0l9.791-9.789a.8.8,0,0,1,1.136,0l9.789,9.787,0,0a.8.8,0,0,1,0,1.135Zm0,0" transform="translate(32.5 956.001)"/></g></svg>