<svg xmlns="http://www.w3.org/2000/svg" width="23.155" height="26" viewBox="0 0 23.155 26"><defs><style>.a{fill:#9bc53d;}</style></defs><g transform="translate(-131 -720)"><g transform="translate(-608 610)"><path class="a" d="M293.126,321.065V322.5H291.7a.7.7,0,1,0,0,1.406h2.126a.7.7,0,0,0,.7-.7v-2.139a.7.7,0,1,0-1.406,0Z" transform="translate(462.232 -195.345)"/><path class="a" d="M99.637,256.08H91.7a.7.7,0,1,0,0,1.406h7.935a.7.7,0,1,0,0-1.406Z" transform="translate(652.858 -141.076)"/><path class="a" d="M99.637,256.08H91.7a.7.7,0,1,0,0,1.406h7.935a.7.7,0,1,0,0-1.406Z" transform="translate(652.858 -137.076)"/><path class="a" d="M95.17,316.18H91.652a.7.7,0,1,0,0,1.406H95.17a.7.7,0,1,0,0-1.406Z" transform="translate(652.906 -193.359)"/><path class="a" d="M50.238,9.048a.7.7,0,0,0,.7-.7V3.54A3.458,3.458,0,0,0,47.5,0H33.566a3.519,3.519,0,0,0-3.515,3.515l-.026,18.108a.7.7,0,0,0,1.211.486l.9-.939.95.95a.7.7,0,0,0,.994,0l.9-.9.91.9a.7.7,0,0,0,.99,0l.924-.916.924.916a.7.7,0,0,0,.99,0l.38-.342A6.2,6.2,0,0,0,44.878,24a6.328,6.328,0,0,0,.681-12.619V9.048Z" transform="translate(710.949 110)"/></g><g transform="translate(-609.974 612)"><path d="M293.126,321.065V322.5H291.7a.7.7,0,1,0,0,1.406h2.126a.7.7,0,0,0,.7-.7v-2.139a.7.7,0,1,0-1.406,0Z" transform="translate(462.232 -195.345)"/><path d="M99.637,256.08H91.7a.7.7,0,1,0,0,1.406h7.935a.7.7,0,1,0,0-1.406Z" transform="translate(652.858 -141.076)"/><path d="M99.637,256.08H91.7a.7.7,0,1,0,0,1.406h7.935a.7.7,0,1,0,0-1.406Z" transform="translate(652.858 -137.076)"/><path d="M95.17,316.18H91.652a.7.7,0,1,0,0,1.406H95.17a.7.7,0,1,0,0-1.406Z" transform="translate(652.906 -193.359)"/><path d="M50.238,9.048a.7.7,0,0,0,.7-.7V3.54A3.458,3.458,0,0,0,47.5,0H33.566a3.519,3.519,0,0,0-3.515,3.515l-.026,18.108a.7.7,0,0,0,1.211.486l.9-.939.95.95a.7.7,0,0,0,.994,0l.9-.9.91.9a.7.7,0,0,0,.99,0l.924-.916.924.916a.7.7,0,0,0,.99,0l.38-.342A6.2,6.2,0,0,0,44.878,24a6.328,6.328,0,0,0,.681-12.619V9.048Zm-.7-5.508v4.1H45.559V3.54A1.982,1.982,0,0,1,47.5,1.406,2.051,2.051,0,0,1,49.535,3.54ZM39.224,20.634l-.925-.917a.7.7,0,0,0-.99,0l-.924.916-.912-.9a.7.7,0,0,0-.992,0l-.9.9-.961-.961a.7.7,0,0,0-1.005.011l-.186.194.026-16.357a2.111,2.111,0,0,1,2.109-2.109H44.871a3.521,3.521,0,0,0-.718,2.134v7.845A6.314,6.314,0,0,0,39.3,20.629ZM49.8,17.672a4.922,4.922,0,1,1-4.922-4.922A4.927,4.927,0,0,1,49.8,17.672Z" transform="translate(710.949 110)"/></g></g></svg>