<svg xmlns="http://www.w3.org/2000/svg" width="17.076" height="28.46" viewBox="0 0 17.076 28.46"><defs><style>.a{fill:#5bc0eb;}.b{fill:#9bc53d;}.c{fill:#fde74c;}</style></defs><g transform="translate(-40.924 -582)"><g transform="translate(-61.476 582)"><g transform="translate(109.989 2.372)"><path class="a" d="M242.49,42.667h-2.846a.711.711,0,1,0,0,1.423h2.846a.711.711,0,1,0,0-1.423Z" transform="translate(-238.933 -42.667)"/></g><g transform="translate(102.4)"><path class="b" d="M116.63,0H105.246A2.849,2.849,0,0,0,102.4,2.846V25.614a2.849,2.849,0,0,0,2.846,2.846H116.63a2.849,2.849,0,0,0,2.846-2.846V2.846A2.849,2.849,0,0,0,116.63,0Zm1.423,25.614a1.423,1.423,0,0,1-1.423,1.423H105.246a1.423,1.423,0,0,1-1.423-1.423V2.846a1.423,1.423,0,0,1,1.423-1.423H116.63a1.423,1.423,0,0,1,1.423,1.423V25.614Z" transform="translate(-102.4 0)"/></g><g transform="translate(109.515 23.242)"><circle class="c" cx="1.423" cy="1.423" r="1.423"/></g><g transform="translate(107.618 2.372)"><circle class="a" cx="0.711" cy="0.711" r="0.711"/></g></g></g></svg>