<svg xmlns="http://www.w3.org/2000/svg" width="21" height="19.667" viewBox="0 0 21 19.667"><defs><style>.a{fill:#fde74c;}.b{stroke:#000;stroke-width:0.4px;font-size:8px;font-family:Comfortaa-Bold, Comfortaa;font-weight:700;}.c{fill:#9bc53d;}.d{fill:#5bc0eb;}</style></defs><g transform="translate(-39.999 -333.138)"><circle class="a" cx="7.724" cy="7.724" r="7.724" transform="translate(42.885 333.138)"/><text class="b" transform="translate(47.662 342.43)"><tspan x="0" y="0">p</tspan></text><g transform="translate(39.999 340.429)"><path class="c" d="M2.653,0A9.939,9.939,0,0,1,5.307,6.089a9.939,9.939,0,0,1-2.653,6.089A9.939,9.939,0,0,1,0,6.089,9.939,9.939,0,0,1,2.653,0Z" transform="translate(0 3.764) rotate(-45)"/><path class="d" d="M2.656,12.19A9.949,9.949,0,0,0,5.312,6.095,9.948,9.948,0,0,0,2.656,0,9.949,9.949,0,0,0,0,6.095,9.948,9.948,0,0,0,2.656,12.19Z" transform="translate(12.381 12.375) rotate(-135)"/></g></g></svg>