<svg xmlns="http://www.w3.org/2000/svg" width="19.045" height="22.518" viewBox="0 0 19.045 22.518"><defs><style>.a{fill:#fde74c;}.b{fill:#9bc53d;}.c{fill:#5bc0eb;}</style></defs><g transform="translate(-39.978 -534)"><path class="a" d="M48.528,11.775l3.781-3.781a.88.88,0,1,1,1.244,1.244l-4.4,4.4a.88.88,0,0,1-1.244,0l-2.458-2.458a.88.88,0,0,1,1.244-1.244Z" transform="translate(0 534)"/><path class="b" d="M58.458,3.646,49.837.067a.88.88,0,0,0-.675,0l-8.62,3.579A.88.88,0,0,0,40,4.459V8.81a14.731,14.731,0,0,0,9.168,13.644.88.88,0,0,0,.665,0A14.731,14.731,0,0,0,59,8.81V4.459A.88.88,0,0,0,58.458,3.646ZM57.241,8.81A12.975,12.975,0,0,1,49.5,20.684,12.975,12.975,0,0,1,41.759,8.81V5.046L49.5,1.832l7.741,3.214Z" transform="translate(0 534)"/><path class="c" d="M58.458,3.646c-.352-.137-8.62-3.579-8.62-3.579a.88.88,0,0,0-.675,0l-8.62,3.579c-.328.136-.652.463-.542,1.4H59C59.109,4.094,58.81,3.784,58.458,3.646Zm-16.7,1.4L49.5,1.832l7.741,3.214Z" transform="translate(0 534)"/></g></svg>