<svg xmlns="http://www.w3.org/2000/svg" width="20.416" height="24.074" viewBox="0 0 20.416 24.074"><defs><style>.a{fill:#9bc53d;}</style></defs><g transform="translate(-320 -848)"><g transform="translate(322 848)"><path class="a" d="M92.348,10.633a5.145,5.145,0,0,0,3.759-1.558,5.145,5.145,0,0,0,1.557-3.759,5.145,5.145,0,0,0-1.558-3.759,5.315,5.315,0,0,0-7.518,0,5.144,5.144,0,0,0-1.558,3.759,5.145,5.145,0,0,0,1.558,3.759A5.146,5.146,0,0,0,92.348,10.633Z" transform="translate(-83.28 0)"/><path class="a" d="M18.372,253.628a13.131,13.131,0,0,0-.179-1.395,10.989,10.989,0,0,0-.343-1.4,6.926,6.926,0,0,0-.577-1.308,4.931,4.931,0,0,0-.869-1.133,3.833,3.833,0,0,0-1.249-.785,4.315,4.315,0,0,0-1.594-.288,1.618,1.618,0,0,0-.864.366c-.259.169-.562.364-.9.58a5.157,5.157,0,0,1-1.165.513,4.523,4.523,0,0,1-2.849,0,5.143,5.143,0,0,1-1.164-.513c-.335-.214-.638-.409-.9-.581a1.616,1.616,0,0,0-.864-.367,4.31,4.31,0,0,0-1.594.289,3.829,3.829,0,0,0-1.249.785,4.931,4.931,0,0,0-.869,1.133,6.939,6.939,0,0,0-.576,1.308,11.014,11.014,0,0,0-.343,1.4,13.043,13.043,0,0,0-.179,1.4c-.029.422-.044.86-.044,1.3A3.665,3.665,0,0,0,1.088,257.7a3.918,3.918,0,0,0,2.805,1.023H14.522a3.919,3.919,0,0,0,2.805-1.023,3.664,3.664,0,0,0,1.089-2.773c0-.445-.015-.883-.045-1.3Z" transform="translate(0 -236.653)"/></g><g transform="translate(320 850)"><path d="M92.348,10.633a5.145,5.145,0,0,0,3.759-1.558,5.145,5.145,0,0,0,1.557-3.759,5.145,5.145,0,0,0-1.558-3.759,5.315,5.315,0,0,0-7.518,0,5.144,5.144,0,0,0-1.558,3.759,5.145,5.145,0,0,0,1.558,3.759A5.146,5.146,0,0,0,92.348,10.633ZM89.5,2.472a4.022,4.022,0,0,1,5.689,0,3.844,3.844,0,0,1,1.179,2.844,3.844,3.844,0,0,1-1.179,2.844,4.021,4.021,0,0,1-5.689,0,3.843,3.843,0,0,1-1.179-2.844A3.843,3.843,0,0,1,89.5,2.472Zm0,0" transform="translate(-83.28 0)"/><path d="M18.372,253.628a13.131,13.131,0,0,0-.179-1.395,10.989,10.989,0,0,0-.343-1.4,6.926,6.926,0,0,0-.577-1.308,4.931,4.931,0,0,0-.869-1.133,3.833,3.833,0,0,0-1.249-.785,4.315,4.315,0,0,0-1.594-.288,1.618,1.618,0,0,0-.864.366c-.259.169-.562.364-.9.58a5.157,5.157,0,0,1-1.165.513,4.523,4.523,0,0,1-2.849,0,5.143,5.143,0,0,1-1.164-.513c-.335-.214-.638-.409-.9-.581a1.616,1.616,0,0,0-.864-.367,4.31,4.31,0,0,0-1.594.289,3.829,3.829,0,0,0-1.249.785,4.931,4.931,0,0,0-.869,1.133,6.939,6.939,0,0,0-.576,1.308,11.014,11.014,0,0,0-.343,1.4,13.043,13.043,0,0,0-.179,1.4c-.029.422-.044.86-.044,1.3A3.665,3.665,0,0,0,1.088,257.7a3.918,3.918,0,0,0,2.805,1.023H14.522a3.919,3.919,0,0,0,2.805-1.023,3.664,3.664,0,0,0,1.089-2.773c0-.445-.015-.883-.045-1.3Zm-1.936,3.14a2.638,2.638,0,0,1-1.913.667H3.894a2.638,2.638,0,0,1-1.913-.667,2.394,2.394,0,0,1-.687-1.836c0-.414.014-.822.041-1.214a11.763,11.763,0,0,1,.162-1.256,9.715,9.715,0,0,1,.3-1.236,5.65,5.65,0,0,1,.469-1.064,3.655,3.655,0,0,1,.639-.837,2.543,2.543,0,0,1,.831-.517,2.978,2.978,0,0,1,1.019-.2c.045.024.126.07.257.155.266.173.572.371.911.587a6.41,6.41,0,0,0,1.462.653,5.815,5.815,0,0,0,3.645,0,6.416,6.416,0,0,0,1.463-.654c.347-.222.645-.414.911-.587.131-.085.211-.131.257-.155a2.98,2.98,0,0,1,1.019.2,2.546,2.546,0,0,1,.831.517,3.646,3.646,0,0,1,.639.837,5.631,5.631,0,0,1,.469,1.063,9.692,9.692,0,0,1,.3,1.236,11.864,11.864,0,0,1,.162,1.257h0c.027.391.041.8.041,1.214a2.393,2.393,0,0,1-.687,1.836Zm0,0" transform="translate(0 -236.653)"/></g></g></svg>