<svg xmlns="http://www.w3.org/2000/svg" width="31.175" height="30.218" viewBox="0 0 31.175 30.218"><defs><style>.a{stroke:#000;stroke-width:0.2px;}</style></defs><g transform="translate(-171.848 -339.9)"><path class="a" d="M10.724,29.851H5.932l1.638-2.836a1.611,1.611,0,0,0,2.3-1.812l-.969-3.986a1.61,1.61,0,0,0-2.019-1.165L2.611,21.3a1.46,1.46,0,0,0-.319,2.666l.24.139L.77,27.161A5.67,5.67,0,0,0,5.68,35.667h5.043a2.908,2.908,0,1,0,0-5.816Zm-9.17-2.238,1.989-3.444a.453.453,0,0,0-.166-.618l-.632-.365a.555.555,0,0,1,.121-1.013c4.454-1.295,4.287-1.282,4.475-1.282a.706.706,0,0,1,.685.54l.969,3.986a.705.705,0,0,1-1.039.778l-.327-.189a.452.452,0,0,0-.618.166l-2.795,4.84A3.087,3.087,0,0,0,4.6,34.64a4.767,4.767,0,0,1-3.043-7.027Zm9.17,7.148H6.9a2.2,2.2,0,0,1-1.9-3.3l.431-.747c.222.073-.056.023,5.292.038a2,2,0,1,1,0,4.006ZM17.5,19.107c4.082,1.174,3.988,1.22,4.393,1.22A1.612,1.612,0,0,0,23.458,19.1l1.053-4.329a1.46,1.46,0,0,0-2.149-1.61l-.24.139-1.762-3.053a5.671,5.671,0,0,0-9.822,0L8.431,13.891c-.125.216.4-.291.618-.166s.041.835.166.618l1.495-2.589a2.2,2.2,0,0,1,3.807,0l.431.747c-.173.155-.058.054-2.679,4.564a2,2,0,1,1-3.469-2l.416-.72a.453.453,0,0,0-.784-.453l-.416.72a2.908,2.908,0,1,0,5.037,2.908l2.4-4.15L17.086,16.2a1.611,1.611,0,0,0,.417,2.9Zm-2.2-7.8a3.087,3.087,0,0,0-2.687-1.551,5.783,5.783,0,0,0-.644.066,4.767,4.767,0,0,1,7.607.878l1.989,3.444a.452.452,0,0,0,.618.166l.632-.365a.555.555,0,0,1,.817.612l-1.053,4.329a.705.705,0,0,1-.884.511l-3.937-1.154a.705.705,0,0,1-.154-1.289l.327-.189a.453.453,0,0,0,.166-.618ZM30.126,27.161,27.6,22.793A2.908,2.908,0,0,0,22.568,25.7l2.4,4.15H21.689a1.611,1.611,0,0,0-2.722-1.09L16,31.593a1.61,1.61,0,0,0,0,2.331L19.222,37a1.459,1.459,0,0,0,2.468-1.056v-.277h3.682a.453.453,0,0,0,0-.905H21.238a.453.453,0,0,0-.453.453v.73a.555.555,0,0,1-.938.4l-3.223-3.076a.705.705,0,0,1,0-1.021l2.967-2.832a.705.705,0,0,1,1.193.511V30.3a.453.453,0,0,0,.453.453h5.589a3.087,3.087,0,0,0,2.952-2.143,4.775,4.775,0,0,1-3.376,6,4.855,4.855,0,0,1-1.03.146c-.453.017-2.162,1.388,1.251.732a5.672,5.672,0,0,0,3.5-8.333Zm-3.3,2.69h-.863c-.047-.227-.017-.078-2.613-4.6a2,2,0,1,1,3.469-2l1.91,3.309A2.2,2.2,0,0,1,26.828,29.851Z" transform="translate(171.999 332.593)"/></g></svg>