<svg xmlns="http://www.w3.org/2000/svg" width="24.184" height="24.039" viewBox="0 0 24.184 24.039"><defs><style>.a{fill:#9bc53d;}.b{fill:#5bc0eb;}.c{fill:#fde74c;}</style></defs><g transform="translate(-57.998 -133.96)"><g transform="translate(-961.61 -213.706)"><g transform="matrix(0.052, -0.999, 0.999, 0.052, 1019.608, 370.5)"><g transform="translate(0 0)"><path class="a" d="M.248,1.111C3.284,1.435,5,4.9,5.531,6A8.123,8.123,0,0,0,2.943,16.114c1.224,2.5,3.134,4.332,6.685,5.675,3.431,1.32,8.294,1.387,12.66,1.075a.615.615,0,0,0,.576-.648.608.608,0,0,0-.24-.432c-2.207-1.9-3.388-4.765-4.2-7.62a42.953,42.953,0,0,0-1.3-5.073h0a7.2,7.2,0,0,0-7.4-4.533,8.411,8.411,0,0,0-3.143.864h0C5.571,3.293,3.635.214.648,0A.685.685,0,0,0,.019.393.775.775,0,0,0,.248,1.111Z" transform="translate(0 0)"/></g></g></g><g transform="translate(68.648 142.745)"><path d="M151.8,131.611a1.814,1.814,0,0,0-.251-3.61h-1.612a.6.6,0,0,0-.6.6v4.433a.6.6,0,0,0,1.209,0V132.2l1.865,1.332a.6.6,0,0,0,.843-.14.6.6,0,0,0-.141-.843Zm-1.258-1.192v-1.209h1.008a.6.6,0,1,1,0,1.209Zm0,0" transform="translate(-149.332 -128)"/><path d="M258.217,192H256.6a.6.6,0,0,0-.6.6v4.433a.6.6,0,0,0,1.209,0v-1.411h1.008a1.814,1.814,0,0,0,0-3.627Zm0,2.418h-1.008v-1.209h1.008a.6.6,0,0,1,0,1.209Zm0,0" transform="translate(-252.024 -189.636)"/></g><g transform="translate(-961.61 -213.706)"><g transform="matrix(0.052, -0.999, 0.999, 0.052, 1019.608, 370.5)"><g transform="translate(0 0)"><path class="b" d="M.248,1.111C3.284,1.435,5,4.9,5.531,6l1.043-.573h0C5.571,3.293,3.635.214.648,0A.685.685,0,0,0,.019.393.775.775,0,0,0,.248,1.111Z" transform="translate(0 0)"/></g></g></g><g transform="matrix(0.052, -0.999, 0.999, 0.052, 57.982, 156.795)"><g transform="translate(0 0)"><path class="c" d="M5.555,6a8.123,8.123,0,0,0-2.612,10.11c1.224,2.5,3.134,4.332,6.685,5.675,3.431,1.32,8.294,1.387,12.66,1.075a.615.615,0,0,0,.576-.648.608.608,0,0,0-.24-.432c-2.207-1.9-3.388-4.765-4.2-7.62a42.953,42.953,0,0,0-1.3-5.073h0a7.2,7.2,0,0,0-7.4-4.533A8.552,8.552,0,0,0,6.54,5.4,8.874,8.874,0,0,0,5.555,6Zm1.257.7a8.265,8.265,0,0,1,2.977-.92,6.159,6.159,0,0,1,6.273,3.885c.6,1.552.727,3.226,1.183,4.857a19.19,19.19,0,0,0,3.6,7.236c-3.695.1-7.862.052-10.789-1.075C6.8,19.437,5.1,17.817,4.022,15.61a6.9,6.9,0,0,1,.649-6.863A6.327,6.327,0,0,1,6.812,6.7Z" transform="translate(0 0)"/></g></g></g></svg>