<svg xmlns="http://www.w3.org/2000/svg" width="18.203" height="22.2" viewBox="0 0 18.203 22.2"><defs><style>.a{stroke:#000;stroke-width:0.2px;}</style></defs><path class="a" d="M16.994,5.651a.455.455,0,0,0-.456-.418H13.074V3.908a3.875,3.875,0,1,0-7.75,0V5.233H1.86a.461.461,0,0,0-.456.418L.21,19.5A2.314,2.314,0,0,0,.8,21.255,2.272,2.272,0,0,0,2.484,22H15.918a2.272,2.272,0,0,0,1.681-.744,2.314,2.314,0,0,0,.594-1.753ZM6.236,3.908a2.963,2.963,0,1,1,5.926,0V5.233H6.236Zm10.69,16.725a1.344,1.344,0,0,1-1.008.446H2.48a1.363,1.363,0,0,1-1.008-.447,1.387,1.387,0,0,1-.355-1.052L2.275,6.153h3.05v2.87a1.552,1.552,0,1,0,.912,0V6.148h5.926V9.022a1.552,1.552,0,1,0,.912,0V6.148h3.045l1.158,13.428a1.375,1.375,0,0,1-.351,1.058ZM5.712,9.878a.513.513,0,0,0,.137,0,.639.639,0,1,1-.137,0Zm6.838,0a.513.513,0,0,0,.137,0,.639.639,0,1,1-.137,0Zm0,0" transform="translate(-0.1 0.1)"/></svg>