<svg xmlns="http://www.w3.org/2000/svg" width="19" height="20.785" viewBox="0 0 19 20.785"><defs><style>.a{fill:#9bc53d;}.b{fill:#5bc0eb;}.c{fill:#fde74c;}</style></defs><g transform="translate(-1451 -510.291)"><path class="a" d="M12.63,2.359H3.544A3.548,3.548,0,0,0,0,5.9V18.558A3.548,3.548,0,0,0,3.544,22.1H14.436a3.548,3.548,0,0,0,3.544-3.544l.005-10.941-1.777,1.2v9.745a1.774,1.774,0,0,1-1.772,1.772H3.544a1.774,1.774,0,0,1-1.772-1.772V5.9A1.774,1.774,0,0,1,3.544,4.131l7.973,0ZM4.425,9.7Z" transform="translate(1451 508.975)"/><g transform="translate(1462.129 510.291)"><path class="b" d="M3.935,0A3.935,3.935,0,1,0,7.871,3.935,3.933,3.933,0,0,0,3.935,0Zm0,7.346A3.411,3.411,0,1,1,7.346,3.935,3.414,3.414,0,0,1,3.935,7.346Z"/><g transform="translate(3.673 3.225)"><path class="b" d="M239.192,209.777a.262.262,0,0,0-.262.262v2.213a.262.262,0,1,0,.525,0v-2.213A.262.262,0,0,0,239.192,209.777Z" transform="translate(-238.93 -209.777)"/></g><g transform="translate(3.411 1.908)"><path class="b" d="M222.392,124.122a.525.525,0,1,0,.525.525A.525.525,0,0,0,222.392,124.122Z" transform="translate(-221.867 -124.122)"/></g></g><path class="c" d="M13.55,16.786H4.425a.886.886,0,1,1,0-1.772H13.55a.886.886,0,1,1,0,1.772Zm.886-4.43a.886.886,0,0,1-.886.886H4.425a.886.886,0,1,1,0-1.772H13.55A.886.886,0,0,1,14.436,12.357ZM4.425,9.7a.886.886,0,1,1,0-1.772H9.967a.886.886,0,0,1,0,1.772Zm0,0" transform="translate(1451 508.975)"/></g></svg>